# xmcd
#
# Track frame offsets: 
#        200
#        24530
#        45142
#        63405
#        80320
#        100365
#        117557
#        141395
#        159067
#        179517
#
# Disc length: 2616 seconds
#
# Revision: 5
# Processed by: cddbd v1.5.2PL0 Copyright (c) Steve Scherf et al.
# Submitted via: ExactAudioCopy v0.99pb3
#
DISCID=7c0a360a
DTITLE=Earl Thomas - Blue...Not Blues
DYEAR=1991
DGENRE=Blues
TTITLE0=I Sing The Blues
TTITLE1=What I've Got To Do
TTITLE2=I Ain't Ready (To Give Up On Your Love)
TTITLE3=Your Love
TTITLE4=I'll Be Here
TTITLE5=Nothing Left To Lose
TTITLE6=The Way She Shakes That Thang
TTITLE7=Special Lovin
TTITLE8=Baby Please Don't Cry
TTITLE9=I Won't Be Around
EXTD=
EXTT0=
EXTT1=
EXTT2=
EXTT3=
EXTT4=
EXTT5=
EXTT6=
EXTT7=
EXTT8=
EXTT9=
PLAYORDER=
